<?xml version="1.0" standalone="no"?><!DOCTYPE svg PUBLIC "-//W3C//DTD SVG 1.1//EN" "http://www.w3.org/Graphics/SVG/1.1/DTD/svg11.dtd"><svg t="1581263933122" class="icon" viewBox="0 0 1024 1024" version="1.1" xmlns="http://www.w3.org/2000/svg" p-id="1827" xmlns:xlink="http://www.w3.org/1999/xlink" width="16" height="16"><defs><style type="text/css"></style></defs><path d="M675.1 366.4V262.3c0-4.7-1.9-9.3-5.2-12.7-3.4-3.4-7.9-5.2-12.7-5.2H223.8c-3.5 0-6.9 0.9-9.9 2.7-5.3 3.3-8.4 9.1-8.4 15.2v96.6c0.1 4.7 2 9.2 5.4 12.5l64.2 63.9c-29.8 31.7-50.8 71.9-59 116.6-2 11 6.4 21.1 17.6 21.1 8.6 0 16-6.1 17.6-14.6 2.4-13.5 6.3-26.9 11.7-39.9 30.2-73 101.5-120.6 180.5-120.6 107.8 0.2 195.2 87.6 195.4 195.4 0 79-47.6 150.3-120.6 180.5s-157.1 13.5-213-42.4c-28.9-28.9-47.3-65.4-54.2-103.9-1.5-8.5-9-14.6-17.6-14.6h-0.1c-11.1 0-19.5 10-17.6 20.9 19 108.5 113.7 191 227.7 191 127.6-0.2 231-103.6 231.2-231.2 0-63.7-25.8-121.5-67.5-163.3l60.7-49.7c4.5-3.2 7.2-8.6 7.2-14.2z m-330 18c-15.4 7.2-29.8 16.1-43.1 26.5l-60.7-59.1v-71.6h103.8v104.2z m161.1-13.3c-19.9-5.6-40.9-8.6-62.6-8.6s-42.7 3-62.6 8.6v-90.9h125.3l-0.1 90.9z m132.4-13.6l-59 49.3c-11.8-8.6-24.3-16.1-37.6-22.3V280.2h96.6v77.3z" fill="#f1b92e" p-id="1828"></path><path d="M555.6 535.3l-69.4-11.1-30.1-63.7c-2.9-6.2-9-10.2-15.7-10.4-6.4 0.2-12.2 4.1-14.7 10l-32.2 62.6-69.8 8.9c-6.8 0.9-12.5 5.5-14.7 12s-0.5 13.6 4.3 18.4l51.5 51.5-12.9 69.1c-1.2 6.7 1.4 13.5 6.8 17.5 5.8 3.5 13.1 3.5 19 0l62.6-31.9 60.1 33.6c2.6 1.4 5.6 2.1 8.6 2.1l-2.1 0.4c5.2 0 10.2-2.4 13.5-6.3 3.4-4 4.8-9.3 4-14.4l-10.7-69.4 51.2-48.3c5-4.7 6.9-11.7 5-18.3-2.1-6.3-7.6-11.2-14.3-12.3z m-72.7 59.1c-4.3 4-6.3 9.9-5.4 15.7l6.8 42.9-38.3-20.7c-2.6-1.4-5.6-2.1-8.6-2.1l2.9 0.4c-3.4-0.4-6.9 0.2-10 1.8L391.6 652l7.9-42.9c1-5.8-0.9-11.6-5-15.7l-30.8-30.8 43.3-5.7c5.8-0.8 10.9-4.4 13.6-9.7l19.7-38.7 17.9 39c2.5 5.3 7.4 9.1 13.2 10l42.9 6.8-31.4 30.1z" fill="#f1b92e" p-id="1829"></path></svg>