<?xml version="1.0" standalone="no"?><!DOCTYPE svg PUBLIC "-//W3C//DTD SVG 1.1//EN" "http://www.w3.org/Graphics/SVG/1.1/DTD/svg11.dtd"><svg t="1584373291812" class="icon" viewBox="0 0 1024 1024" version="1.1" xmlns="http://www.w3.org/2000/svg" p-id="6322" width="128" height="128" xmlns:xlink="http://www.w3.org/1999/xlink"><defs><style type="text/css"></style></defs><path d="M791.32015 647.5c-3.4-12.5-12.1-49.8-48.2-50.7-8.8-0.8-16.8 0.4-23.7 2.4-2.5-8.8-7.1-17-14.2-24-11.1-11-24-15.6-39.6-16-10.9-0.2-23.4 3.2-32.1 9.2-1.4-1.9-2.8-3.8-4.5-5.4-11.1-11-24-15.6-39.6-16-7.6-0.1-14.6 0.6-21 3.2l-0.1-60.6c38.4-20.1 64.2-61.7 64.2-107-0.6-32.8-13.8-61.6-36.8-84.3-22.5-22.2-53.2-34.4-84.8-33.6-29-0.5-53.9 9-75 26.4-27.7 22.8-45.2 54.7-42.9 92.7 0 44.6 23.8 85.2 62.9 105.6l-0.2 140.9-39.3 11.4c-12.1 2.7-21.2 6.4-30.3 13.9-15.8 13-24.6 34.8-25.2 54.3-0.8 20.2-1 46.8 1.7 68.8 6.3 60.9 41.3 109.2 67.1 142.9 15.1 20.9 28.8 40.2 28.9 51.2l33.5 0.9c-0.3-22-15.4-42.8-35.6-70-25.7-33.7-57-74.1-61.6-125.2-2-15.8-3.3-41.2-2.2-64.2 0.6-17.9 12.9-35 31.6-39.3l31.3-9.5-0.1 102.6 33.5 1-0.4-371.7c-0.1-11 9.2-20.9 22.5-20.8 13.3 0.1 22.1 8.2 21.9 21.5l2.1 280 33.5 0.9-0.1-84.4c1.6-6.7 9-14.6 22-14.4 10.4 0.3 18.7 9.6 18.6 15.1l1.5 84.6 17.8-0.8 17.2 0.5 0.2-75.5c3.5-6.8 12.2-11.7 22.9-11.6 10.1-0.2 19.2 6.1 19.8 12l-0.2 86.5 33.5 0.9 0.1-56.9c4.4-2.5 10.9-4.2 17.7-4.2 5.9 0 13.1 2.5 18.2 24.7 25.9 117.2-5.3 217.9-21.6 273.1-7 21-9.3 34.1-10.3 43.9l34.1-1.7c-0.5-3.9 4.4-19.1 8.1-33.1 17.6-56.7 49.7-164.6 23.2-290.2z m-279.5-305c-14.7-1.1-27.2 4.9-36.3 12.4-12 9.9-19.2 24.9-19.5 42.5l-0.1 51.4c-18.6-15.4-29.6-38.9-28.9-64.3-0.1-48.1 36.1-86.9 84.5-87.2 23.1 1.1 45.2 9.3 60.4 25.3 16.2 17.2 24.9 38.6 25.4 60.4-0.6 25.1-11.3 48.6-29.1 64.8l-0.1-50.4c-0.8-30.4-26.1-55.4-56.3-54.9zM1022.02015 200.8l-24.8-47.2-22-41.9c-5.9-11.2-21.2-7.5-27.6 6.7l-15.9 35.1c-108-65.5-260.3-103-418.5-103-159.4 0-312.4 38-420.7 104.2l-16.2-35.6c-6.4-14.1-21.7-17.8-27.6-6.7l-22 41.9L2.02015 201.6c-5.3 10 0.3 22.3 11.3 25l51.9 12.5 46 11.1c12.3 3 19.6-11 13.2-25.1l-15.6-34.4c0.5-0.2 1-0.3 1.4-0.6C212.52015 126.5 359.42015 90 513.22015 90c152.2 0 298.1 35.9 400.2 98.4 0.7 0.4 1.4 0.7 2.1 1l-15.9 35c-6.4 14.1 0.9 28.1 13.2 25.1l46-11.1 51.9-12.5c11-2.7 16.6-15 11.3-25.1z" p-id="6323" fill="#59A040"></path></svg>